<?xml version="1.0" encoding="UTF-8"?>
<svg height="16px" viewBox="0 0 16 16" width="16px" xmlns="http://www.w3.org/2000/svg">
    <g fill="#241f31">
        <path d="m 14 10 h -2 c -0.550781 0 -1 -0.449219 -1 -1 v -2 c 0 -0.550781 0.449219 -1 1 -1 h 2 c 0.550781 0 1 0.449219 1 1 v 2 c 0 0.550781 -0.449219 1 -1 1 z m 0 0"/>
        <path d="m 9 15 h -2 c -0.550781 0 -1 -0.449219 -1 -1 v -2 c 0 -0.550781 0.449219 -1 1 -1 h 2 c 0.550781 0 1 0.449219 1 1 v 2 c 0 0.550781 -0.449219 1 -1 1 z m 0 0"/>
        <path d="m 4 15 h -2 c -0.550781 0 -1 -0.449219 -1 -1 v -2 c 0 -0.550781 0.449219 -1 1 -1 h 2 c 0.550781 0 1 0.449219 1 1 v 2 c 0 0.550781 -0.449219 1 -1 1 z m 0 0"/>
        <path d="m 9 10 h -2 c -0.550781 0 -1 -0.449219 -1 -1 v -2 c 0 -0.550781 0.449219 -1 1 -1 h 2 c 0.550781 0 1 0.449219 1 1 v 2 c 0 0.550781 -0.449219 1 -1 1 z m 0 0"/>
        <path d="m 4 5 h -2 c -0.550781 0 -1 -0.449219 -1 -1 v -2 c 0 -0.550781 0.449219 -1 1 -1 h 2 c 0.550781 0 1 0.449219 1 1 v 2 c 0 0.550781 -0.449219 1 -1 1 z m 0 0"/>
    </g>
</svg>
