<?xml version="1.0" encoding="UTF-8"?>
<svg height="128px" viewBox="0 0 128 128" width="128px" xmlns="http://www.w3.org/2000/svg" xmlns:xlink="http://www.w3.org/1999/xlink">
    <linearGradient id="a" gradientTransform="matrix(0.232143 0 0 0.328947 -8.56691 263.826965)" gradientUnits="userSpaceOnUse" x1="88.595886" x2="536.595886" y1="-449.394012" y2="-449.394012">
        <stop offset="0" stop-color="#c0bfbc"/>
        <stop offset="0.0384615" stop-color="#f6f5f4"/>
        <stop offset="0.0768555" stop-color="#c0bfbc"/>
        <stop offset="0.923077" stop-color="#c0bfbc"/>
        <stop offset="0.961538" stop-color="#f6f5f4"/>
        <stop offset="1" stop-color="#c0bfbc"/>
    </linearGradient>
    <linearGradient id="b" gradientUnits="userSpaceOnUse" x1="79.342155" x2="33.187122" y1="32.179764" y2="84.083069">
        <stop offset="0" stop-color="#4677da"/>
        <stop offset="1" stop-color="#c061cb"/>
    </linearGradient>
    <linearGradient id="c" gradientUnits="userSpaceOnUse">
        <stop offset="0" stop-opacity="0.34902"/>
        <stop offset="0.125" stop-opacity="0.14902"/>
        <stop offset="0.25" stop-opacity="0.34902"/>
        <stop offset="0.75" stop-opacity="0.34902"/>
        <stop offset="0.875" stop-opacity="0.14902"/>
        <stop offset="1" stop-opacity="0.34902"/>
    </linearGradient>
    <linearGradient id="d" x1="24" x2="48" xlink:href="#c" y1="38" y2="38"/>
    <linearGradient id="e" x1="51.999998" x2="75.999998" xlink:href="#c" y1="65.999996" y2="65.999996"/>
    <linearGradient id="f" x1="80" x2="104" xlink:href="#c" y1="65.999996" y2="65.999996"/>
    <linearGradient id="g" x1="23.999999" x2="47.999999" xlink:href="#c" y1="93.999996" y2="93.999996"/>
    <linearGradient id="h" x1="52.000002" x2="76.000002" xlink:href="#c" y1="93.999996" y2="93.999996"/>
    <clipPath id="i">
        <rect height="128" width="128"/>
    </clipPath>
    <clipPath id="j">
        <rect height="128" width="128"/>
    </clipPath>
    <filter id="k" height="100%" width="100%" x="0%" y="0%">
        <feColorMatrix in="SourceGraphic" type="matrix" values="0 0 0 0 1 0 0 0 0 1 0 0 0 0 1 0 0 0 1 0"/>
    </filter>
    <mask id="l">
        <g clip-path="url(#j)" filter="url(#k)">
            <g clip-path="url(#i)">
                <path d="m 20 16 h 88 c 4.417969 0 8 3.582031 8 8 v 84 c 0 4.417969 -3.582031 8 -8 8 h -88 c -4.417969 0 -8 -3.582031 -8 -8 v -84 c 0 -4.417969 3.582031 -8 8 -8 z m 0 0" fill="url(#a)"/>
                <path d="m 20 12 h 88 c 4.417969 0 8 3.582031 8 8 v 84 c 0 4.417969 -3.582031 8 -8 8 h -88 c -4.417969 0 -8 -3.582031 -8 -8 v -84 c 0 -4.417969 3.582031 -8 8 -8 z m 0 0" fill="#f6f5f4"/>
                <path d="m 30 20 c -3.324219 0 -6 2.675781 -6 6 v 12 c 0 3.324219 2.675781 6 6 6 h 12 c 3.324219 0 6 -2.675781 6 -6 v -12 c 0 -3.324219 -2.675781 -6 -6 -6 z m 28 28 c -3.324219 0 -6 2.675781 -6 6 v 12 c 0 3.324219 2.675781 6 6 6 h 12 c 3.324219 0 6 -2.675781 6 -6 v -12 c 0 -3.324219 -2.675781 -6 -6 -6 z m 28 0 c -3.324219 0 -6 2.675781 -6 6 v 12 c 0 3.324219 2.675781 6 6 6 h 12 c 3.324219 0 6 -2.675781 6 -6 v -12 c 0 -3.324219 -2.675781 -6 -6 -6 z m -56 28 c -3.324219 0 -6 2.675781 -6 6 v 12 c 0 3.324219 2.675781 6 6 6 h 12 c 3.324219 0 6 -2.675781 6 -6 v -12 c 0 -3.324219 -2.675781 -6 -6 -6 z m 28 0 c -3.324219 0 -6 2.675781 -6 6 v 12 c 0 3.324219 2.675781 6 6 6 h 12 c 3.324219 0 6 -2.675781 6 -6 v -12 c 0 -3.324219 -2.675781 -6 -6 -6 z m 0 0" fill="url(#b)"/>
                <path d="m 24 32 v 6 c 0 3.324219 2.675781 6 6 6 h 12 c 3.324219 0 6 -2.675781 6 -6 v -6 c 0 3.324219 -2.675781 6 -6 6 h -12 c -3.324219 0 -6 -2.675781 -6 -6 z m 0 0" fill="url(#d)"/>
                <path d="m 52 60 v 6 c 0 3.324219 2.675781 6 6 6 h 12 c 3.324219 0 6 -2.675781 6 -6 v -6 c 0 3.324219 -2.675781 6 -6 6 h -12 c -3.324219 0 -6 -2.675781 -6 -6 z m 0 0" fill="url(#e)"/>
                <path d="m 80 60 v 6 c 0 3.324219 2.675781 6 6 6 h 12 c 3.324219 0 6 -2.675781 6 -6 v -6 c 0 3.324219 -2.675781 6 -6 6 h -12 c -3.324219 0 -6 -2.675781 -6 -6 z m 0 0" fill="url(#f)"/>
                <path d="m 24 88 v 6 c 0 3.324219 2.675781 6 6 6 h 12 c 3.324219 0 6 -2.675781 6 -6 v -6 c 0 3.324219 -2.675781 6 -6 6 h -12 c -3.324219 0 -6 -2.675781 -6 -6 z m 0 0" fill="url(#g)"/>
                <path d="m 52 88 v 6 c 0 3.324219 2.675781 6 6 6 h 12 c 3.324219 0 6 -2.675781 6 -6 v -6 c 0 3.324219 -2.675781 6 -6 6 h -12 c -3.324219 0 -6 -2.675781 -6 -6 z m 0 0" fill="url(#h)"/>
            </g>
        </g>
    </mask>
    <mask id="m">
        <g filter="url(#k)">
            <rect fill-opacity="0.8" height="128" width="128"/>
        </g>
    </mask>
    <linearGradient id="n" gradientTransform="matrix(0 0.37 -0.98462 0 295.38501 -30.360001)" gradientUnits="userSpaceOnUse" x1="300" x2="428" y1="235" y2="235">
        <stop offset="0" stop-color="#f9f06b"/>
        <stop offset="1" stop-color="#f5c211"/>
    </linearGradient>
    <clipPath id="o">
        <rect height="128" width="128"/>
    </clipPath>
    <clipPath id="p">
        <rect height="128" width="128"/>
    </clipPath>
    <path d="m 20 16 h 88 c 4.417969 0 8 3.582031 8 8 v 84 c 0 4.417969 -3.582031 8 -8 8 h -88 c -4.417969 0 -8 -3.582031 -8 -8 v -84 c 0 -4.417969 3.582031 -8 8 -8 z m 0 0" fill="url(#a)"/>
    <path d="m 20 12 h 88 c 4.417969 0 8 3.582031 8 8 v 84 c 0 4.417969 -3.582031 8 -8 8 h -88 c -4.417969 0 -8 -3.582031 -8 -8 v -84 c 0 -4.417969 3.582031 -8 8 -8 z m 0 0" fill="#f6f5f4"/>
    <path d="m 30 20 c -3.324219 0 -6 2.675781 -6 6 v 12 c 0 3.324219 2.675781 6 6 6 h 12 c 3.324219 0 6 -2.675781 6 -6 v -12 c 0 -3.324219 -2.675781 -6 -6 -6 z m 28 28 c -3.324219 0 -6 2.675781 -6 6 v 12 c 0 3.324219 2.675781 6 6 6 h 12 c 3.324219 0 6 -2.675781 6 -6 v -12 c 0 -3.324219 -2.675781 -6 -6 -6 z m 28 0 c -3.324219 0 -6 2.675781 -6 6 v 12 c 0 3.324219 2.675781 6 6 6 h 12 c 3.324219 0 6 -2.675781 6 -6 v -12 c 0 -3.324219 -2.675781 -6 -6 -6 z m -56 28 c -3.324219 0 -6 2.675781 -6 6 v 12 c 0 3.324219 2.675781 6 6 6 h 12 c 3.324219 0 6 -2.675781 6 -6 v -12 c 0 -3.324219 -2.675781 -6 -6 -6 z m 28 0 c -3.324219 0 -6 2.675781 -6 6 v 12 c 0 3.324219 2.675781 6 6 6 h 12 c 3.324219 0 6 -2.675781 6 -6 v -12 c 0 -3.324219 -2.675781 -6 -6 -6 z m 0 0" fill="url(#b)"/>
    <path d="m 24 32 v 6 c 0 3.324219 2.675781 6 6 6 h 12 c 3.324219 0 6 -2.675781 6 -6 v -6 c 0 3.324219 -2.675781 6 -6 6 h -12 c -3.324219 0 -6 -2.675781 -6 -6 z m 0 0" fill="url(#d)"/>
    <path d="m 52 60 v 6 c 0 3.324219 2.675781 6 6 6 h 12 c 3.324219 0 6 -2.675781 6 -6 v -6 c 0 3.324219 -2.675781 6 -6 6 h -12 c -3.324219 0 -6 -2.675781 -6 -6 z m 0 0" fill="url(#e)"/>
    <path d="m 80 60 v 6 c 0 3.324219 2.675781 6 6 6 h 12 c 3.324219 0 6 -2.675781 6 -6 v -6 c 0 3.324219 -2.675781 6 -6 6 h -12 c -3.324219 0 -6 -2.675781 -6 -6 z m 0 0" fill="url(#f)"/>
    <path d="m 24 88 v 6 c 0 3.324219 2.675781 6 6 6 h 12 c 3.324219 0 6 -2.675781 6 -6 v -6 c 0 3.324219 -2.675781 6 -6 6 h -12 c -3.324219 0 -6 -2.675781 -6 -6 z m 0 0" fill="url(#g)"/>
    <path d="m 52 88 v 6 c 0 3.324219 2.675781 6 6 6 h 12 c 3.324219 0 6 -2.675781 6 -6 v -6 c 0 3.324219 -2.675781 6 -6 6 h -12 c -3.324219 0 -6 -2.675781 -6 -6 z m 0 0" fill="url(#h)"/>
    <g clip-path="url(#p)" mask="url(#l)">
        <g clip-path="url(#o)" mask="url(#m)">
            <path d="m 128 80.640625 v 47.359375 h -128 v -47.359375 z m 0 0" fill="url(#n)"/>
            <path d="m 13.308594 80.640625 l 47.355468 47.359375 h 21.214844 l -47.359375 -47.359375 z m 42.421875 0 l 47.363281 47.359375 h 21.214844 l -47.363282 -47.359375 z m 42.429687 0 l 29.839844 29.839844 v -21.210938 l -8.628906 -8.628906 z m -98.160156 7.90625 v 21.214844 l 18.238281 18.238281 h 21.214844 z m 0 0"/>
        </g>
    </g>
</svg>
