<?xml version="1.0" encoding="UTF-8"?>
<svg height="128px" viewBox="0 0 128 128" width="128px" xmlns="http://www.w3.org/2000/svg" xmlns:xlink="http://www.w3.org/1999/xlink">
    <linearGradient id="a" gradientTransform="matrix(0.232143 0 0 0.328947 -8.566925 263.826965)" gradientUnits="userSpaceOnUse" x1="88.595886" x2="536.595886" y1="-449.394012" y2="-449.394012">
        <stop offset="0" stop-color="#77767b"/>
        <stop offset="0.0384615" stop-color="#c0bfbc"/>
        <stop offset="0.0768555" stop-color="#9a9996"/>
        <stop offset="0.923077" stop-color="#9a9996"/>
        <stop offset="0.961538" stop-color="#c0bfbc"/>
        <stop offset="1" stop-color="#77767b"/>
    </linearGradient>
    <path d="m 20 16 h 88 c 4.417969 0 8 3.582031 8 8 v 84 c 0 4.417969 -3.582031 8 -8 8 h -88 c -4.417969 0 -8 -3.582031 -8 -8 v -84 c 0 -4.417969 3.582031 -8 8 -8 z m 0 0" fill="url(#a)"/>
    <path d="m 20 12 h 88 c 4.417969 0 8 3.582031 8 8 v 84 c 0 4.417969 -3.582031 8 -8 8 h -88 c -4.417969 0 -8 -3.582031 -8 -8 v -84 c 0 -4.417969 3.582031 -8 8 -8 z m 0 0" fill="#deddda"/>
    <g stroke-linecap="round" stroke-linejoin="round">
        <path d="m 24.722656 23.898438 h 37.222656 v 37.175781 h -37.222656 z m 0 0" fill="#613583" stroke="#613583" stroke-width="1.263"/>
        <path d="m 66.238281 23.898438 h 37.222657 v 37.175781 h -37.222657 z m 0 0" fill="#c061cb" stroke="#c061cb" stroke-width="1.263"/>
        <path d="m 66.238281 65.453125 h 37.222657 v 37.179687 h -37.222657 z m 0 0" fill="#613583" stroke="#613583" stroke-width="1.26278"/>
        <path d="m 24.722656 65.453125 h 37.222656 v 37.179687 h -37.222656 z m 0 0" fill="#613583" stroke="#613583" stroke-width="1.26278"/>
    </g>
</svg>
